<mxfile host="drawio-plugin" modified="2023-08-13T18:36:22.326Z" agent="5.0 (X11; Linux x86_64) AppleWebKit/537.36 (KHTML, like Gecko) Chrome/104.0.5112.102 Safari/537.36" etag="1ls21Hzyfh4zlJ7urtBq" version="20.5.3" type="embed"><diagram id="6a731a19-8d31-9384-78a2-239565b7b9f0" name="Page-1"><mxGraphModel dx="684" dy="563" grid="1" gridSize="10" guides="1" tooltips="1" connect="1" arrows="1" fold="1" page="1" pageScale="1" pageWidth="140" pageHeight="106" background="#FFFFFF" math="0" shadow="0"><root><mxCell id="0"/><mxCell id="1" parent="0"/><mxCell id="2114" value="&lt;font color=&quot;#000000&quot;&gt;s1 | src_entry&lt;/font&gt;" style="shape=mxgraph.cisco.switches.workgroup_switch;html=1;dashed=0;fillColor=#10739E;strokeColor=#ffffff;strokeWidth=2;verticalLabelPosition=bottom;verticalAlign=top;fontFamily=Helvetica;fontSize=26;fontColor=#FFB366" parent="1" vertex="1"><mxGeometry x="1243.5" y="245" width="101" height="50" as="geometry"/></mxCell><mxCell id="eoMGSKBOUgeIE6Lk5qr4-2258" value="s3 | src_exit" style="shape=mxgraph.cisco.switches.workgroup_switch;html=1;dashed=0;fillColor=#10739E;strokeColor=#ffffff;strokeWidth=2;verticalLabelPosition=bottom;verticalAlign=top;fontFamily=Helvetica;fontSize=26;fontColor=#000000;" parent="1" vertex="1"><mxGeometry x="1240" y="525" width="101" height="50" as="geometry"/></mxCell><mxCell id="eoMGSKBOUgeIE6Lk5qr4-2262" value="s4 | bn_begin" style="shape=mxgraph.cisco.switches.workgroup_switch;html=1;dashed=0;fillColor=#10739E;strokeColor=#ffffff;strokeWidth=2;verticalLabelPosition=bottom;verticalAlign=top;fontFamily=Helvetica;fontSize=26;fontColor=#000000;" parent="1" vertex="1"><mxGeometry x="1240" y="806" width="101" height="50" as="geometry"/></mxCell><mxCell id="eoMGSKBOUgeIE6Lk5qr4-2264" value="s5 | bn_tp" style="shape=mxgraph.cisco.switches.workgroup_switch;html=1;dashed=0;fillColor=#10739E;strokeColor=#ffffff;strokeWidth=2;verticalLabelPosition=bottom;verticalAlign=top;fontFamily=Helvetica;fontSize=26;fontColor=#000000;" parent="1" vertex="1"><mxGeometry x="1240" y="945" width="101" height="50" as="geometry"/></mxCell><mxCell id="eoMGSKBOUgeIE6Lk5qr4-2266" value="s6 | bn_end" style="shape=mxgraph.cisco.switches.workgroup_switch;html=1;dashed=0;fillColor=#10739E;strokeColor=#ffffff;strokeWidth=2;verticalLabelPosition=bottom;verticalAlign=top;fontFamily=Helvetica;fontSize=26;fontColor=#000000;" parent="1" vertex="1"><mxGeometry x="1240" y="1086" width="101" height="50" as="geometry"/></mxCell><mxCell id="eoMGSKBOUgeIE6Lk5qr4-2270" value="s7 | dst_entry" style="shape=mxgraph.cisco.switches.workgroup_switch;html=1;dashed=0;fillColor=#10739E;strokeColor=#ffffff;strokeWidth=2;verticalLabelPosition=bottom;verticalAlign=top;fontFamily=Helvetica;fontSize=26;fontColor=#000000;" parent="1" vertex="1"><mxGeometry x="1240" y="1365" width="101" height="50" as="geometry"/></mxCell><mxCell id="eoMGSKBOUgeIE6Lk5qr4-2272" value="s8 | dst_tp" style="shape=mxgraph.cisco.switches.workgroup_switch;html=1;dashed=0;fillColor=#10739E;strokeColor=#ffffff;strokeWidth=2;verticalLabelPosition=bottom;verticalAlign=top;fontFamily=Helvetica;fontSize=26;fontColor=#000000;" parent="1" vertex="1"><mxGeometry x="1240" y="1506" width="101" height="50" as="geometry"/></mxCell><mxCell id="eoMGSKBOUgeIE6Lk5qr4-2275" value="h1 | src" style="shape=mxgraph.cisco.computers_and_peripherals.pc;sketch=0;html=1;pointerEvents=1;dashed=0;fillColor=#036897;strokeColor=#ffffff;strokeWidth=2;verticalLabelPosition=bottom;verticalAlign=top;align=center;outlineConnect=0;fontColor=#000000;fontSize=26;" parent="1" vertex="1"><mxGeometry x="1243.5" y="94" width="78" height="70" as="geometry"/></mxCell><mxCell id="2173" value="vpn1 | tun_entry" style="shape=mxgraph.cisco.computers_and_peripherals.pc;sketch=0;html=1;pointerEvents=1;dashed=0;fillColor=#036897;strokeColor=#ffffff;strokeWidth=2;verticalLabelPosition=bottom;verticalAlign=top;align=center;outlineConnect=0;fontColor=#000000;fontSize=26;" parent="1" vertex="1"><mxGeometry x="1251.5" y="655" width="78" height="70" as="geometry"/></mxCell><mxCell id="2176" value="vpn2 | tun_exit" style="shape=mxgraph.cisco.computers_and_peripherals.pc;sketch=0;html=1;pointerEvents=1;dashed=0;fillColor=#036897;strokeColor=#ffffff;strokeWidth=2;verticalLabelPosition=bottom;verticalAlign=top;align=center;outlineConnect=0;fontColor=#000000;fontSize=26;" parent="1" vertex="1"><mxGeometry x="1251.5" y="1214" width="78" height="70" as="geometry"/></mxCell><mxCell id="2184" value="s9 | dst_exit" style="shape=mxgraph.cisco.switches.workgroup_switch;html=1;dashed=0;fillColor=#10739E;strokeColor=#ffffff;strokeWidth=2;verticalLabelPosition=bottom;verticalAlign=top;fontFamily=Helvetica;fontSize=26;fontColor=#000000;" parent="1" vertex="1"><mxGeometry x="1240" y="1645" width="101" height="50" as="geometry"/></mxCell><mxCell id="2186" value="h2 | dst" style="shape=mxgraph.cisco.computers_and_peripherals.pc;sketch=0;html=1;pointerEvents=1;dashed=0;fillColor=#036897;strokeColor=#ffffff;strokeWidth=2;verticalLabelPosition=bottom;verticalAlign=top;align=center;outlineConnect=0;fontColor=#000000;fontSize=26;" parent="1" vertex="1"><mxGeometry x="1251.5" y="1774" width="78" height="70" as="geometry"/></mxCell><mxCell id="2180" value="s2 | src_tp" style="shape=mxgraph.cisco.switches.workgroup_switch;html=1;dashed=0;fillColor=#10739E;strokeColor=#ffffff;strokeWidth=2;verticalLabelPosition=bottom;verticalAlign=top;fontFamily=Helvetica;fontSize=26;fontColor=#000000;" parent="1" vertex="1"><mxGeometry x="1243.5" y="384" width="101" height="50" as="geometry"/></mxCell><mxCell id="2317" value="&lt;font style=&quot;font-size: 20px;&quot;&gt;ETH&lt;/font&gt;" style="rounded=0;whiteSpace=wrap;html=1;fillColor=#FA6E6E;fontColor=#000000;strokeColor=#000000;" vertex="1" parent="1"><mxGeometry x="680" y="180" width="80" height="40" as="geometry"/></mxCell><mxCell id="2318" value="&lt;font style=&quot;font-size: 20px;&quot;&gt;IP&lt;/font&gt;" style="rounded=0;whiteSpace=wrap;html=1;fontColor=#000000;fillColor=#FA6E6E;strokeColor=#000000;" vertex="1" parent="1"><mxGeometry x="760" y="180" width="80" height="40" as="geometry"/></mxCell><mxCell id="2319" value="&lt;font style=&quot;font-size: 20px;&quot;&gt;UDP/TCP&lt;/font&gt;" style="rounded=0;whiteSpace=wrap;html=1;fontColor=#000000;fillColor=#FA6E6E;strokeColor=#000000;" vertex="1" parent="1"><mxGeometry x="840" y="180" width="160" height="40" as="geometry"/></mxCell><mxCell id="2320" value="&lt;font style=&quot;font-size: 20px;&quot;&gt;ETH&lt;/font&gt;" style="rounded=0;whiteSpace=wrap;html=1;fillColor=#FA6E6E;fontColor=#000000;strokeColor=#000000;" vertex="1" parent="1"><mxGeometry x="680" y="321" width="80" height="40" as="geometry"/></mxCell><mxCell id="2321" value="&lt;font style=&quot;font-size: 20px;&quot;&gt;IP&lt;/font&gt;" style="rounded=0;whiteSpace=wrap;html=1;fontColor=#000000;fillColor=#FA6E6E;strokeColor=#000000;" vertex="1" parent="1"><mxGeometry x="760" y="321" width="80" height="40" as="geometry"/></mxCell><mxCell id="2322" value="&lt;font style=&quot;font-size: 20px;&quot;&gt;UDP/TCP&lt;/font&gt;" style="rounded=0;whiteSpace=wrap;html=1;fontColor=#000000;fillColor=#FA6E6E;strokeColor=#000000;" vertex="1" parent="1"><mxGeometry x="840" y="321" width="160" height="40" as="geometry"/></mxCell><mxCell id="2326" value="&lt;font style=&quot;font-size: 20px;&quot;&gt;MPLS&lt;/font&gt;" style="rounded=0;whiteSpace=wrap;html=1;fillColor=#66B2FF;fontColor=#000000;strokeColor=#000000;" vertex="1" parent="1"><mxGeometry x="600" y="321" width="80" height="40" as="geometry"/></mxCell><mxCell id="2327" value="&lt;font style=&quot;font-size: 20px;&quot;&gt;Payload&lt;/font&gt;" style="rounded=0;whiteSpace=wrap;html=1;strokeColor=#000000;" vertex="1" parent="1"><mxGeometry x="1000" y="180" width="160" height="40" as="geometry"/></mxCell><mxCell id="2328" value="&lt;font style=&quot;font-size: 20px;&quot;&gt;Payload&lt;/font&gt;" style="rounded=0;whiteSpace=wrap;html=1;strokeColor=#000000;" vertex="1" parent="1"><mxGeometry x="1000" y="321" width="160" height="40" as="geometry"/></mxCell><mxCell id="2329" value="&lt;font style=&quot;font-size: 20px;&quot;&gt;ETH&lt;/font&gt;" style="rounded=0;whiteSpace=wrap;html=1;fillColor=#FA6E6E;fontColor=#000000;strokeColor=#000000;" vertex="1" parent="1"><mxGeometry x="280" y="742" width="80" height="40" as="geometry"/></mxCell><mxCell id="2330" value="&lt;font style=&quot;font-size: 20px;&quot;&gt;IP&lt;/font&gt;" style="rounded=0;whiteSpace=wrap;html=1;fontColor=#000000;fillColor=#FA6E6E;strokeColor=#000000;" vertex="1" parent="1"><mxGeometry x="360" y="742" width="80" height="40" as="geometry"/></mxCell><mxCell id="2331" value="&lt;font style=&quot;font-size: 20px;&quot;&gt;UDP (Wireguard)&lt;/font&gt;" style="rounded=0;whiteSpace=wrap;html=1;fontColor=#000000;fillColor=#FA6E6E;strokeColor=#000000;" vertex="1" parent="1"><mxGeometry x="440" y="742" width="160" height="40" as="geometry"/></mxCell><mxCell id="2334" value="&lt;font style=&quot;font-size: 20px;&quot;&gt;ETH&lt;/font&gt;" style="rounded=0;whiteSpace=wrap;html=1;fillColor=#FA6E6E;fontColor=#000000;strokeColor=#000000;" vertex="1" parent="1"><mxGeometry x="280" y="881" width="80" height="40" as="geometry"/></mxCell><mxCell id="2335" value="&lt;font style=&quot;font-size: 20px;&quot;&gt;IP&lt;/font&gt;" style="rounded=0;whiteSpace=wrap;html=1;fontColor=#000000;fillColor=#FA6E6E;strokeColor=#000000;" vertex="1" parent="1"><mxGeometry x="360" y="881" width="80" height="40" as="geometry"/></mxCell><mxCell id="2336" value="&lt;font style=&quot;font-size: 20px;&quot;&gt;UDP (Wireguard)&lt;/font&gt;" style="rounded=0;whiteSpace=wrap;html=1;fontColor=#000000;fillColor=#FA6E6E;strokeColor=#000000;" vertex="1" parent="1"><mxGeometry x="440" y="881" width="160" height="40" as="geometry"/></mxCell><mxCell id="2337" value="&lt;font style=&quot;font-size: 20px;&quot;&gt;MPLS&lt;/font&gt;" style="rounded=0;whiteSpace=wrap;html=1;fillColor=#66B2FF;fontColor=#000000;strokeColor=#000000;" vertex="1" parent="1"><mxGeometry x="200" y="881" width="80" height="40" as="geometry"/></mxCell><mxCell id="2339" value="&lt;font style=&quot;font-size: 20px;&quot;&gt;ETH&lt;/font&gt;" style="rounded=0;whiteSpace=wrap;html=1;fillColor=#CCCCCC;fontColor=#000000;strokeColor=#000000;" vertex="1" parent="1"><mxGeometry x="680" y="742" width="80" height="40" as="geometry"/></mxCell><mxCell id="2340" value="&lt;font style=&quot;font-size: 20px;&quot;&gt;IP&lt;/font&gt;" style="rounded=0;whiteSpace=wrap;html=1;fillColor=#CCCCCC;fontColor=#000000;strokeColor=#000000;" vertex="1" parent="1"><mxGeometry x="760" y="742" width="80" height="40" as="geometry"/></mxCell><mxCell id="2341" value="&lt;font style=&quot;font-size: 20px;&quot;&gt;UDP/TCP&lt;/font&gt;" style="rounded=0;whiteSpace=wrap;html=1;fillColor=#CCCCCC;fontColor=#000000;strokeColor=#000000;" vertex="1" parent="1"><mxGeometry x="840" y="742" width="160" height="40" as="geometry"/></mxCell><mxCell id="2342" value="&lt;font style=&quot;font-size: 20px;&quot;&gt;MPLS&lt;/font&gt;" style="rounded=0;whiteSpace=wrap;html=1;fillColor=#CCCCCC;fontColor=#000000;strokeColor=#000000;" vertex="1" parent="1"><mxGeometry x="600" y="742" width="80" height="40" as="geometry"/></mxCell><mxCell id="2343" value="&lt;font style=&quot;font-size: 20px;&quot;&gt;Payload&lt;/font&gt;" style="rounded=0;whiteSpace=wrap;html=1;fillColor=#CCCCCC;fontColor=#000000;strokeColor=#000000;" vertex="1" parent="1"><mxGeometry x="1000" y="742" width="160" height="40" as="geometry"/></mxCell><mxCell id="2344" value="&lt;font style=&quot;font-size: 20px;&quot;&gt;ETH&lt;/font&gt;" style="rounded=0;whiteSpace=wrap;html=1;fillColor=#CCCCCC;fontColor=#000000;strokeColor=#000000;" vertex="1" parent="1"><mxGeometry x="680" y="881" width="80" height="40" as="geometry"/></mxCell><mxCell id="2345" value="&lt;font style=&quot;font-size: 20px;&quot;&gt;IP&lt;/font&gt;" style="rounded=0;whiteSpace=wrap;html=1;fillColor=#CCCCCC;fontColor=#000000;strokeColor=#000000;" vertex="1" parent="1"><mxGeometry x="760" y="881" width="80" height="40" as="geometry"/></mxCell><mxCell id="2346" value="&lt;font style=&quot;font-size: 20px;&quot;&gt;UDP/TCP&lt;/font&gt;" style="rounded=0;whiteSpace=wrap;html=1;fillColor=#CCCCCC;fontColor=#000000;strokeColor=#000000;" vertex="1" parent="1"><mxGeometry x="840" y="881" width="160" height="40" as="geometry"/></mxCell><mxCell id="2347" value="&lt;font style=&quot;font-size: 20px;&quot;&gt;MPLS&lt;/font&gt;" style="rounded=0;whiteSpace=wrap;html=1;fillColor=#CCCCCC;fontColor=#000000;strokeColor=#000000;" vertex="1" parent="1"><mxGeometry x="600" y="881" width="80" height="40" as="geometry"/></mxCell><mxCell id="2348" value="&lt;font style=&quot;font-size: 20px;&quot;&gt;Payload&lt;/font&gt;" style="rounded=0;whiteSpace=wrap;html=1;fillColor=#CCCCCC;fontColor=#000000;strokeColor=#000000;" vertex="1" parent="1"><mxGeometry x="1000" y="881" width="160" height="40" as="geometry"/></mxCell><mxCell id="2349" value="&lt;font style=&quot;font-size: 20px;&quot;&gt;ETH&lt;/font&gt;" style="rounded=0;whiteSpace=wrap;html=1;fillColor=#FA6E6E;fontColor=#000000;strokeColor=#000000;" vertex="1" parent="1"><mxGeometry x="680" y="457" width="80" height="40" as="geometry"/></mxCell><mxCell id="2350" value="&lt;font style=&quot;font-size: 20px;&quot;&gt;IP&lt;/font&gt;" style="rounded=0;whiteSpace=wrap;html=1;fontColor=#000000;fillColor=#FA6E6E;strokeColor=#000000;" vertex="1" parent="1"><mxGeometry x="760" y="457" width="80" height="40" as="geometry"/></mxCell><mxCell id="2351" value="&lt;font style=&quot;font-size: 20px;&quot;&gt;UDP/TCP&lt;/font&gt;" style="rounded=0;whiteSpace=wrap;html=1;fontColor=#000000;fillColor=#FA6E6E;strokeColor=#000000;" vertex="1" parent="1"><mxGeometry x="840" y="457" width="160" height="40" as="geometry"/></mxCell><mxCell id="2352" value="&lt;font style=&quot;font-size: 20px;&quot;&gt;MPLS&lt;/font&gt;" style="rounded=0;whiteSpace=wrap;html=1;fillColor=#66B2FF;fontColor=#000000;strokeColor=#000000;" vertex="1" parent="1"><mxGeometry x="600" y="457" width="80" height="40" as="geometry"/></mxCell><mxCell id="2353" value="&lt;font style=&quot;font-size: 20px;&quot;&gt;Payload&lt;/font&gt;" style="rounded=0;whiteSpace=wrap;html=1;strokeColor=#000000;" vertex="1" parent="1"><mxGeometry x="1000" y="457" width="160" height="40" as="geometry"/></mxCell><mxCell id="2355" value="&lt;font style=&quot;font-size: 20px;&quot;&gt;ETH&lt;/font&gt;" style="rounded=0;whiteSpace=wrap;html=1;fillColor=#FA6E6E;fontColor=#000000;strokeColor=#000000;" vertex="1" parent="1"><mxGeometry x="680" y="600" width="80" height="40" as="geometry"/></mxCell><mxCell id="2356" value="&lt;font style=&quot;font-size: 20px;&quot;&gt;IP&lt;/font&gt;" style="rounded=0;whiteSpace=wrap;html=1;fontColor=#000000;fillColor=#FA6E6E;strokeColor=#000000;" vertex="1" parent="1"><mxGeometry x="760" y="600" width="80" height="40" as="geometry"/></mxCell><mxCell id="2357" value="&lt;font style=&quot;font-size: 20px;&quot;&gt;UDP/TCP&lt;/font&gt;" style="rounded=0;whiteSpace=wrap;html=1;fontColor=#000000;fillColor=#FA6E6E;strokeColor=#000000;" vertex="1" parent="1"><mxGeometry x="840" y="600" width="160" height="40" as="geometry"/></mxCell><mxCell id="2358" value="&lt;font style=&quot;font-size: 20px;&quot;&gt;MPLS&lt;/font&gt;" style="rounded=0;whiteSpace=wrap;html=1;fillColor=#66B2FF;fontColor=#000000;strokeColor=#000000;" vertex="1" parent="1"><mxGeometry x="600" y="600" width="80" height="40" as="geometry"/></mxCell><mxCell id="2359" value="&lt;font style=&quot;font-size: 20px;&quot;&gt;Payload&lt;/font&gt;" style="rounded=0;whiteSpace=wrap;html=1;strokeColor=#000000;" vertex="1" parent="1"><mxGeometry x="1000" y="600" width="160" height="40" as="geometry"/></mxCell><mxCell id="2360" value="&lt;font style=&quot;font-size: 20px;&quot;&gt;ETH&lt;/font&gt;" style="rounded=0;whiteSpace=wrap;html=1;fillColor=#FA6E6E;fontColor=#000000;strokeColor=#000000;" vertex="1" parent="1"><mxGeometry x="280" y="1020" width="80" height="40" as="geometry"/></mxCell><mxCell id="2361" value="&lt;font style=&quot;font-size: 20px;&quot;&gt;IP&lt;/font&gt;" style="rounded=0;whiteSpace=wrap;html=1;fontColor=#000000;fillColor=#FA6E6E;strokeColor=#000000;" vertex="1" parent="1"><mxGeometry x="360" y="1020" width="80" height="40" as="geometry"/></mxCell><mxCell id="2362" value="&lt;font style=&quot;font-size: 20px;&quot;&gt;UDP (Wireguard)&lt;/font&gt;" style="rounded=0;whiteSpace=wrap;html=1;fontColor=#000000;fillColor=#FA6E6E;strokeColor=#000000;" vertex="1" parent="1"><mxGeometry x="440" y="1020" width="160" height="40" as="geometry"/></mxCell><mxCell id="2363" value="&lt;font style=&quot;font-size: 20px;&quot;&gt;MPLS&lt;/font&gt;" style="rounded=0;whiteSpace=wrap;html=1;fillColor=#66B2FF;fontColor=#000000;strokeColor=#000000;" vertex="1" parent="1"><mxGeometry x="200" y="1020" width="80" height="40" as="geometry"/></mxCell><mxCell id="2364" value="&lt;font style=&quot;font-size: 20px;&quot;&gt;ETH&lt;/font&gt;" style="rounded=0;whiteSpace=wrap;html=1;fillColor=#CCCCCC;fontColor=#000000;strokeColor=#000000;" vertex="1" parent="1"><mxGeometry x="680" y="1020" width="80" height="40" as="geometry"/></mxCell><mxCell id="2365" value="&lt;font style=&quot;font-size: 20px;&quot;&gt;IP&lt;/font&gt;" style="rounded=0;whiteSpace=wrap;html=1;fillColor=#CCCCCC;fontColor=#000000;strokeColor=#000000;" vertex="1" parent="1"><mxGeometry x="760" y="1020" width="80" height="40" as="geometry"/></mxCell><mxCell id="2366" value="&lt;font style=&quot;font-size: 20px;&quot;&gt;UDP/TCP&lt;/font&gt;" style="rounded=0;whiteSpace=wrap;html=1;fillColor=#CCCCCC;fontColor=#000000;strokeColor=#000000;" vertex="1" parent="1"><mxGeometry x="840" y="1020" width="160" height="40" as="geometry"/></mxCell><mxCell id="2367" value="&lt;font style=&quot;font-size: 20px;&quot;&gt;MPLS&lt;/font&gt;" style="rounded=0;whiteSpace=wrap;html=1;fillColor=#CCCCCC;fontColor=#000000;strokeColor=#000000;" vertex="1" parent="1"><mxGeometry x="600" y="1020" width="80" height="40" as="geometry"/></mxCell><mxCell id="2368" value="&lt;font style=&quot;font-size: 20px;&quot;&gt;Payload&lt;/font&gt;" style="rounded=0;whiteSpace=wrap;html=1;fillColor=#CCCCCC;fontColor=#000000;strokeColor=#000000;" vertex="1" parent="1"><mxGeometry x="1000" y="1020" width="160" height="40" as="geometry"/></mxCell><mxCell id="2369" value="&lt;font style=&quot;font-size: 20px;&quot;&gt;ETH&lt;/font&gt;" style="rounded=0;whiteSpace=wrap;html=1;fillColor=#FA6E6E;fontColor=#000000;strokeColor=#000000;" vertex="1" parent="1"><mxGeometry x="280" y="1160" width="80" height="40" as="geometry"/></mxCell><mxCell id="2370" value="&lt;font style=&quot;font-size: 20px;&quot;&gt;IP&lt;/font&gt;" style="rounded=0;whiteSpace=wrap;html=1;fontColor=#000000;fillColor=#FA6E6E;strokeColor=#000000;" vertex="1" parent="1"><mxGeometry x="360" y="1160" width="80" height="40" as="geometry"/></mxCell><mxCell id="2371" value="&lt;font style=&quot;font-size: 20px;&quot;&gt;UDP (Wireguard)&lt;/font&gt;" style="rounded=0;whiteSpace=wrap;html=1;fontColor=#000000;fillColor=#FA6E6E;strokeColor=#000000;" vertex="1" parent="1"><mxGeometry x="440" y="1160" width="160" height="40" as="geometry"/></mxCell><mxCell id="2373" value="&lt;font style=&quot;font-size: 20px;&quot;&gt;ETH&lt;/font&gt;" style="rounded=0;whiteSpace=wrap;html=1;fillColor=#CCCCCC;fontColor=#000000;strokeColor=#000000;" vertex="1" parent="1"><mxGeometry x="680" y="1160" width="80" height="40" as="geometry"/></mxCell><mxCell id="2374" value="&lt;font style=&quot;font-size: 20px;&quot;&gt;IP&lt;/font&gt;" style="rounded=0;whiteSpace=wrap;html=1;fillColor=#CCCCCC;fontColor=#000000;strokeColor=#000000;" vertex="1" parent="1"><mxGeometry x="760" y="1160" width="80" height="40" as="geometry"/></mxCell><mxCell id="2375" value="&lt;font style=&quot;font-size: 20px;&quot;&gt;UDP/TCP&lt;/font&gt;" style="rounded=0;whiteSpace=wrap;html=1;fillColor=#CCCCCC;fontColor=#000000;strokeColor=#000000;" vertex="1" parent="1"><mxGeometry x="840" y="1160" width="160" height="40" as="geometry"/></mxCell><mxCell id="2376" value="&lt;font style=&quot;font-size: 20px;&quot;&gt;MPLS&lt;/font&gt;" style="rounded=0;whiteSpace=wrap;html=1;fillColor=#CCCCCC;fontColor=#000000;strokeColor=#000000;" vertex="1" parent="1"><mxGeometry x="600" y="1160" width="80" height="40" as="geometry"/></mxCell><mxCell id="2377" value="&lt;font style=&quot;font-size: 20px;&quot;&gt;Payload&lt;/font&gt;" style="rounded=0;whiteSpace=wrap;html=1;fillColor=#CCCCCC;fontColor=#000000;strokeColor=#000000;" vertex="1" parent="1"><mxGeometry x="1000" y="1160" width="160" height="40" as="geometry"/></mxCell><mxCell id="2382" value="&lt;font style=&quot;font-size: 20px;&quot;&gt;ETH&lt;/font&gt;" style="rounded=0;whiteSpace=wrap;html=1;fillColor=#FA6E6E;fontColor=#000000;strokeColor=#000000;" vertex="1" parent="1"><mxGeometry x="680" y="1300" width="80" height="40" as="geometry"/></mxCell><mxCell id="2383" value="&lt;font style=&quot;font-size: 20px;&quot;&gt;IP&lt;/font&gt;" style="rounded=0;whiteSpace=wrap;html=1;fontColor=#000000;fillColor=#FA6E6E;strokeColor=#000000;" vertex="1" parent="1"><mxGeometry x="760" y="1300" width="80" height="40" as="geometry"/></mxCell><mxCell id="2384" value="&lt;font style=&quot;font-size: 20px;&quot;&gt;UDP/TCP&lt;/font&gt;" style="rounded=0;whiteSpace=wrap;html=1;fontColor=#000000;fillColor=#FA6E6E;strokeColor=#000000;" vertex="1" parent="1"><mxGeometry x="840" y="1300" width="160" height="40" as="geometry"/></mxCell><mxCell id="2385" value="&lt;font style=&quot;font-size: 20px;&quot;&gt;MPLS&lt;/font&gt;" style="rounded=0;whiteSpace=wrap;html=1;fillColor=#66B2FF;fontColor=#000000;strokeColor=#000000;" vertex="1" parent="1"><mxGeometry x="600" y="1300" width="80" height="40" as="geometry"/></mxCell><mxCell id="2386" value="&lt;font style=&quot;font-size: 20px;&quot;&gt;Payload&lt;/font&gt;" style="rounded=0;whiteSpace=wrap;html=1;strokeColor=#000000;" vertex="1" parent="1"><mxGeometry x="1000" y="1300" width="160" height="40" as="geometry"/></mxCell><mxCell id="2387" value="&lt;font style=&quot;font-size: 20px;&quot;&gt;ETH&lt;/font&gt;" style="rounded=0;whiteSpace=wrap;html=1;fillColor=#FA6E6E;fontColor=#000000;strokeColor=#000000;" vertex="1" parent="1"><mxGeometry x="680" y="1440" width="80" height="40" as="geometry"/></mxCell><mxCell id="2388" value="&lt;font style=&quot;font-size: 20px;&quot;&gt;IP&lt;/font&gt;" style="rounded=0;whiteSpace=wrap;html=1;fontColor=#000000;fillColor=#FA6E6E;strokeColor=#000000;" vertex="1" parent="1"><mxGeometry x="760" y="1440" width="80" height="40" as="geometry"/></mxCell><mxCell id="2389" value="&lt;font style=&quot;font-size: 20px;&quot;&gt;UDP/TCP&lt;/font&gt;" style="rounded=0;whiteSpace=wrap;html=1;fontColor=#000000;fillColor=#FA6E6E;strokeColor=#000000;" vertex="1" parent="1"><mxGeometry x="840" y="1440" width="160" height="40" as="geometry"/></mxCell><mxCell id="2390" value="&lt;font style=&quot;font-size: 20px;&quot;&gt;MPLS&lt;/font&gt;" style="rounded=0;whiteSpace=wrap;html=1;fillColor=#66B2FF;fontColor=#000000;strokeColor=#000000;" vertex="1" parent="1"><mxGeometry x="600" y="1440" width="80" height="40" as="geometry"/></mxCell><mxCell id="2391" value="&lt;font style=&quot;font-size: 20px;&quot;&gt;Payload&lt;/font&gt;" style="rounded=0;whiteSpace=wrap;html=1;strokeColor=#000000;" vertex="1" parent="1"><mxGeometry x="1000" y="1440" width="160" height="40" as="geometry"/></mxCell><mxCell id="2392" value="&lt;font style=&quot;font-size: 20px;&quot;&gt;ETH&lt;/font&gt;" style="rounded=0;whiteSpace=wrap;html=1;fillColor=#FA6E6E;fontColor=#000000;strokeColor=#000000;" vertex="1" parent="1"><mxGeometry x="680" y="1580" width="80" height="40" as="geometry"/></mxCell><mxCell id="2393" value="&lt;font style=&quot;font-size: 20px;&quot;&gt;IP&lt;/font&gt;" style="rounded=0;whiteSpace=wrap;html=1;fontColor=#000000;fillColor=#FA6E6E;strokeColor=#000000;" vertex="1" parent="1"><mxGeometry x="760" y="1580" width="80" height="40" as="geometry"/></mxCell><mxCell id="2394" value="&lt;font style=&quot;font-size: 20px;&quot;&gt;UDP/TCP&lt;/font&gt;" style="rounded=0;whiteSpace=wrap;html=1;fontColor=#000000;fillColor=#FA6E6E;strokeColor=#000000;" vertex="1" parent="1"><mxGeometry x="840" y="1580" width="160" height="40" as="geometry"/></mxCell><mxCell id="2395" value="&lt;font style=&quot;font-size: 20px;&quot;&gt;MPLS&lt;/font&gt;" style="rounded=0;whiteSpace=wrap;html=1;fillColor=#66B2FF;fontColor=#000000;strokeColor=#000000;" vertex="1" parent="1"><mxGeometry x="600" y="1580" width="80" height="40" as="geometry"/></mxCell><mxCell id="2396" value="&lt;font style=&quot;font-size: 20px;&quot;&gt;Payload&lt;/font&gt;" style="rounded=0;whiteSpace=wrap;html=1;strokeColor=#000000;" vertex="1" parent="1"><mxGeometry x="1000" y="1580" width="160" height="40" as="geometry"/></mxCell><mxCell id="2397" value="&lt;font style=&quot;font-size: 20px;&quot;&gt;ETH&lt;/font&gt;" style="rounded=0;whiteSpace=wrap;html=1;fillColor=#FA6E6E;fontColor=#000000;strokeColor=#000000;" vertex="1" parent="1"><mxGeometry x="680" y="1720" width="80" height="40" as="geometry"/></mxCell><mxCell id="2398" value="&lt;font style=&quot;font-size: 20px;&quot;&gt;IP&lt;/font&gt;" style="rounded=0;whiteSpace=wrap;html=1;fontColor=#000000;fillColor=#FA6E6E;strokeColor=#000000;" vertex="1" parent="1"><mxGeometry x="760" y="1720" width="80" height="40" as="geometry"/></mxCell><mxCell id="2399" value="&lt;font style=&quot;font-size: 20px;&quot;&gt;UDP/TCP&lt;/font&gt;" style="rounded=0;whiteSpace=wrap;html=1;fontColor=#000000;fillColor=#FA6E6E;strokeColor=#000000;" vertex="1" parent="1"><mxGeometry x="840" y="1720" width="160" height="40" as="geometry"/></mxCell><mxCell id="2401" value="&lt;font style=&quot;font-size: 20px;&quot;&gt;Payload&lt;/font&gt;" style="rounded=0;whiteSpace=wrap;html=1;strokeColor=#000000;" vertex="1" parent="1"><mxGeometry x="1000" y="1720" width="160" height="40" as="geometry"/></mxCell><mxCell id="2402" value="" style="endArrow=none;html=1;fontSize=20;fontColor=#000000;strokeColor=#000000;curved=1;strokeWidth=3;endFill=0;startArrow=blockThin;startFill=1;" edge="1" parent="1"><mxGeometry width="50" height="50" relative="1" as="geometry"><mxPoint x="1220" y="260" as="sourcePoint"/><mxPoint x="1220" y="140" as="targetPoint"/><Array as="points"><mxPoint x="1160" y="199"/></Array></mxGeometry></mxCell><mxCell id="2403" value="" style="endArrow=none;html=1;strokeColor=#000000;strokeWidth=3;fontSize=20;fontColor=#000000;curved=1;exitX=1;exitY=0.5;exitDx=0;exitDy=0;" edge="1" parent="1"><mxGeometry width="50" height="50" relative="1" as="geometry"><mxPoint x="1159" y="200" as="sourcePoint"/><mxPoint x="1189" y="200" as="targetPoint"/></mxGeometry></mxCell><mxCell id="2406" value="" style="endArrow=none;html=1;fontSize=20;fontColor=#000000;strokeColor=#000000;curved=1;strokeWidth=3;endFill=0;startArrow=blockThin;startFill=1;" edge="1" parent="1"><mxGeometry width="50" height="50" relative="1" as="geometry"><mxPoint x="1221" y="822" as="sourcePoint"/><mxPoint x="1221" y="702" as="targetPoint"/><Array as="points"><mxPoint x="1161" y="761"/></Array></mxGeometry></mxCell><mxCell id="2407" value="" style="endArrow=none;html=1;strokeColor=#000000;strokeWidth=3;fontSize=20;fontColor=#000000;curved=1;exitX=1;exitY=0.5;exitDx=0;exitDy=0;" edge="1" parent="1"><mxGeometry width="50" height="50" relative="1" as="geometry"><mxPoint x="1160" y="762" as="sourcePoint"/><mxPoint x="1190" y="762" as="targetPoint"/></mxGeometry></mxCell><mxCell id="2408" value="" style="endArrow=none;html=1;fontSize=20;fontColor=#000000;strokeColor=#000000;curved=1;strokeWidth=3;endFill=0;startArrow=blockThin;startFill=1;" edge="1" parent="1"><mxGeometry width="50" height="50" relative="1" as="geometry"><mxPoint x="1221" y="401" as="sourcePoint"/><mxPoint x="1221" y="281" as="targetPoint"/><Array as="points"><mxPoint x="1161" y="340"/></Array></mxGeometry></mxCell><mxCell id="2409" value="" style="endArrow=none;html=1;strokeColor=#000000;strokeWidth=3;fontSize=20;fontColor=#000000;curved=1;exitX=1;exitY=0.5;exitDx=0;exitDy=0;" edge="1" parent="1"><mxGeometry width="50" height="50" relative="1" as="geometry"><mxPoint x="1160" y="341" as="sourcePoint"/><mxPoint x="1190" y="341" as="targetPoint"/></mxGeometry></mxCell><mxCell id="2412" value="" style="endArrow=none;html=1;fontSize=20;fontColor=#000000;strokeColor=#000000;curved=1;strokeWidth=3;endFill=0;startArrow=blockThin;startFill=1;" edge="1" parent="1"><mxGeometry width="50" height="50" relative="1" as="geometry"><mxPoint x="1221" y="538" as="sourcePoint"/><mxPoint x="1221" y="418" as="targetPoint"/><Array as="points"><mxPoint x="1161" y="477"/></Array></mxGeometry></mxCell><mxCell id="2413" value="" style="endArrow=none;html=1;strokeColor=#000000;strokeWidth=3;fontSize=20;fontColor=#000000;curved=1;exitX=1;exitY=0.5;exitDx=0;exitDy=0;" edge="1" parent="1"><mxGeometry width="50" height="50" relative="1" as="geometry"><mxPoint x="1160" y="478" as="sourcePoint"/><mxPoint x="1190" y="478" as="targetPoint"/></mxGeometry></mxCell><mxCell id="2414" value="" style="endArrow=none;html=1;fontSize=20;fontColor=#000000;strokeColor=#000000;curved=1;strokeWidth=3;endFill=0;startArrow=blockThin;startFill=1;" edge="1" parent="1"><mxGeometry width="50" height="50" relative="1" as="geometry"><mxPoint x="1221" y="680" as="sourcePoint"/><mxPoint x="1221" y="560" as="targetPoint"/><Array as="points"><mxPoint x="1161" y="619"/></Array></mxGeometry></mxCell><mxCell id="2415" value="" style="endArrow=none;html=1;strokeColor=#000000;strokeWidth=3;fontSize=20;fontColor=#000000;curved=1;exitX=1;exitY=0.5;exitDx=0;exitDy=0;" edge="1" parent="1"><mxGeometry width="50" height="50" relative="1" as="geometry"><mxPoint x="1160" y="620" as="sourcePoint"/><mxPoint x="1190" y="620" as="targetPoint"/></mxGeometry></mxCell><mxCell id="2416" value="" style="endArrow=none;html=1;fontSize=20;fontColor=#000000;strokeColor=#000000;curved=1;strokeWidth=3;endFill=0;startArrow=blockThin;startFill=1;" edge="1" parent="1"><mxGeometry width="50" height="50" relative="1" as="geometry"><mxPoint x="1221" y="961" as="sourcePoint"/><mxPoint x="1221" y="841" as="targetPoint"/><Array as="points"><mxPoint x="1161" y="900"/></Array></mxGeometry></mxCell><mxCell id="2417" value="" style="endArrow=none;html=1;strokeColor=#000000;strokeWidth=3;fontSize=20;fontColor=#000000;curved=1;exitX=1;exitY=0.5;exitDx=0;exitDy=0;" edge="1" parent="1"><mxGeometry width="50" height="50" relative="1" as="geometry"><mxPoint x="1160" y="901" as="sourcePoint"/><mxPoint x="1190" y="901" as="targetPoint"/></mxGeometry></mxCell><mxCell id="2418" value="" style="endArrow=none;html=1;fontSize=20;fontColor=#000000;strokeColor=#000000;curved=1;strokeWidth=3;endFill=0;startArrow=blockThin;startFill=1;" edge="1" parent="1"><mxGeometry width="50" height="50" relative="1" as="geometry"><mxPoint x="1221" y="1100" as="sourcePoint"/><mxPoint x="1221" y="980" as="targetPoint"/><Array as="points"><mxPoint x="1161" y="1039"/></Array></mxGeometry></mxCell><mxCell id="2419" value="" style="endArrow=none;html=1;strokeColor=#000000;strokeWidth=3;fontSize=20;fontColor=#000000;curved=1;exitX=1;exitY=0.5;exitDx=0;exitDy=0;" edge="1" parent="1"><mxGeometry width="50" height="50" relative="1" as="geometry"><mxPoint x="1160" y="1040" as="sourcePoint"/><mxPoint x="1190" y="1040" as="targetPoint"/></mxGeometry></mxCell><mxCell id="2422" value="" style="endArrow=none;html=1;fontSize=20;fontColor=#000000;strokeColor=#000000;curved=1;strokeWidth=3;endFill=0;startArrow=blockThin;startFill=1;" edge="1" parent="1"><mxGeometry width="50" height="50" relative="1" as="geometry"><mxPoint x="1221" y="1240" as="sourcePoint"/><mxPoint x="1221" y="1120" as="targetPoint"/><Array as="points"><mxPoint x="1161" y="1179"/></Array></mxGeometry></mxCell><mxCell id="2423" value="" style="endArrow=none;html=1;strokeColor=#000000;strokeWidth=3;fontSize=20;fontColor=#000000;curved=1;exitX=1;exitY=0.5;exitDx=0;exitDy=0;" edge="1" parent="1"><mxGeometry width="50" height="50" relative="1" as="geometry"><mxPoint x="1160" y="1180" as="sourcePoint"/><mxPoint x="1190" y="1180" as="targetPoint"/></mxGeometry></mxCell><mxCell id="2424" value="" style="endArrow=none;html=1;fontSize=20;fontColor=#000000;strokeColor=#000000;curved=1;strokeWidth=3;endFill=0;startArrow=blockThin;startFill=1;" edge="1" parent="1"><mxGeometry width="50" height="50" relative="1" as="geometry"><mxPoint x="1221" y="1378" as="sourcePoint"/><mxPoint x="1221" y="1258" as="targetPoint"/><Array as="points"><mxPoint x="1161" y="1317"/></Array></mxGeometry></mxCell><mxCell id="2425" value="" style="endArrow=none;html=1;strokeColor=#000000;strokeWidth=3;fontSize=20;fontColor=#000000;curved=1;exitX=1;exitY=0.5;exitDx=0;exitDy=0;" edge="1" parent="1"><mxGeometry width="50" height="50" relative="1" as="geometry"><mxPoint x="1160" y="1318" as="sourcePoint"/><mxPoint x="1190" y="1318" as="targetPoint"/></mxGeometry></mxCell><mxCell id="2426" value="" style="endArrow=none;html=1;fontSize=20;fontColor=#000000;strokeColor=#000000;curved=1;strokeWidth=3;endFill=0;startArrow=blockThin;startFill=1;" edge="1" parent="1"><mxGeometry width="50" height="50" relative="1" as="geometry"><mxPoint x="1221" y="1520" as="sourcePoint"/><mxPoint x="1221" y="1400" as="targetPoint"/><Array as="points"><mxPoint x="1161" y="1459"/></Array></mxGeometry></mxCell><mxCell id="2427" value="" style="endArrow=none;html=1;strokeColor=#000000;strokeWidth=3;fontSize=20;fontColor=#000000;curved=1;exitX=1;exitY=0.5;exitDx=0;exitDy=0;" edge="1" parent="1"><mxGeometry width="50" height="50" relative="1" as="geometry"><mxPoint x="1160" y="1460" as="sourcePoint"/><mxPoint x="1190" y="1460" as="targetPoint"/></mxGeometry></mxCell><mxCell id="2428" value="" style="endArrow=none;html=1;fontSize=20;fontColor=#000000;strokeColor=#000000;curved=1;strokeWidth=3;endFill=0;startArrow=blockThin;startFill=1;" edge="1" parent="1"><mxGeometry width="50" height="50" relative="1" as="geometry"><mxPoint x="1221" y="1660" as="sourcePoint"/><mxPoint x="1221" y="1540" as="targetPoint"/><Array as="points"><mxPoint x="1161" y="1599"/></Array></mxGeometry></mxCell><mxCell id="2429" value="" style="endArrow=none;html=1;strokeColor=#000000;strokeWidth=3;fontSize=20;fontColor=#000000;curved=1;exitX=1;exitY=0.5;exitDx=0;exitDy=0;" edge="1" parent="1"><mxGeometry width="50" height="50" relative="1" as="geometry"><mxPoint x="1160" y="1600" as="sourcePoint"/><mxPoint x="1190" y="1600" as="targetPoint"/></mxGeometry></mxCell><mxCell id="2432" value="" style="endArrow=none;html=1;fontSize=20;fontColor=#000000;strokeColor=#000000;curved=1;strokeWidth=3;endFill=0;startArrow=blockThin;startFill=1;" edge="1" parent="1"><mxGeometry width="50" height="50" relative="1" as="geometry"><mxPoint x="1221" y="1800" as="sourcePoint"/><mxPoint x="1221" y="1680" as="targetPoint"/><Array as="points"><mxPoint x="1161" y="1739"/></Array></mxGeometry></mxCell><mxCell id="2433" value="" style="endArrow=none;html=1;strokeColor=#000000;strokeWidth=3;fontSize=20;fontColor=#000000;curved=1;exitX=1;exitY=0.5;exitDx=0;exitDy=0;" edge="1" parent="1"><mxGeometry width="50" height="50" relative="1" as="geometry"><mxPoint x="1160" y="1740" as="sourcePoint"/><mxPoint x="1190" y="1740" as="targetPoint"/></mxGeometry></mxCell></root></mxGraphModel></diagram></mxfile>